Patient4_TMGait_0pt6_02_right_35_EMG.mot
version=1
nRows=29
nColumns=33
inDegrees=no
endheader
time	1LAddLong	2LGlutMax	3LGlutMed	4LIliopsoas	5LSemiMemb	6LBicFemLong	7LRecFem	8LVastMed	9LVastLat	10LGasMed	11LTibAnt	12lTibPost	13LPeroneusLong	14LSol	15LExtDigLong	16LFlexDigLong	17RAddLong	18RGlutMax	19RGlutMed	20RIliopsoas	21RSemiMemb	22RBicFemLong	23RRecFem	24RVastMed	25RVastLat	26RGasMed	27RTibAnt	28RTibPost	29RPeroneusLong	30RSol	31RExtDigLong	32RFlexDigLong
43.383	0.019836	-0.088654	0.14877	0.006561	0.027618	0.014954	0.040131	0.019073	0.098114	0.094452	-0.020294	-0.007477	0.00885	0.046082	0.018158	-0.005493	-0.009766	-0.017395	0.12528	-0.071716	-0.051575	0.04776	0.01358	-0.058441	-0.005341	-0.01358	0.018768	-0.002594	-0.079346	-0.025482	-0.002441	-0.037537
43.384	0.018311	-0.12451	0.18082	0.011597	0.016479	0.014648	-0.016327	0.014801	0.045776	-0.067902	-0.030212	-0.016022	0.069275	0.014191	0.031433	-0.001068	-0.011902	-0.11719	0.38376	-0.064087	-0.027161	0.035858	0.036316	-0.11337	0.017242	-0.013733	0.030365	-0.003967	-0.097809	-0.018463	-0.005188	-0.030212
43.385	0.020294	-0.15152	0.047302	0.00351	0.013428	-0.005035	0.021362	-0.000153	0.010071	-0.15289	-0.016632	-0.011444	0.065308	0.026398	0.004883	-0.049286	-0.005951	-0.14267	-0.081329	-0.045929	-0.033112	0.029449	0.001984	-0.070648	0.027771	-0.010986	0.023193	-0.011444	-0.029297	-0.012207	-0.003662	-0.02243
43.386	0.016479	-0.15808	0.013123	-0.005798	0.013275	0.039063	0.10269	0.00473	0.072479	0.025482	-0.00946	0.000458	0.045166	-0.032043	-0.026855	0.079498	-0.007324	-0.10498	-0.10346	-0.018616	-0.030365	0.019226	0.014191	-0.087585	0.012665	-0.014954	0.018768	-0.002136	0.039368	-0.020752	-0.007019	-0.010986
43.387	0.014954	-0.12238	0.038452	-0.003815	0.015411	0.01358	0.089111	0.005188	0.093079	0.097504	0.00351	-0.007324	0.017548	0.007935	-0.040436	-0.076904	-0.017395	-0.037689	0.13489	-0.025635	-0.042267	0.007629	-0.00946	-0.054016	0.010223	-0.012665	0.018463	-0.006561	0.062866	-0.040131	-0.001068	0.000916
43.388	0.013275	-0.15915	0.079803	0.007019	0.016174	-0.010223	0.005493	0.014648	0.097656	0.084534	-0.001373	0.000153	0.023041	-0.002136	-0.078278	-0.1062	0.001678	-0.011749	-0.001831	-0.041962	-0.084686	-0.019226	-0.002136	-0.08667	0.03006	-0.012512	0.025635	-0.002594	0.034027	-0.01236	-0.000916	0.016022
43.389	0.013275	-0.17212	0.004272	0.014038	0.013733	0.002899	0.012054	0.012665	0.056305	0.049286	-0.000458	0.007782	0.075073	-0.007019	-0.053711	0.26428	0.018921	-0.001068	0.36774	-0.007477	-0.19806	-0.03006	0.043793	-0.086212	0.00946	-0.010223	0.025024	-0.010834	0.032959	-0.00885	-0.008087	0.022583
43.39	0.010376	-0.16785	-0.081329	0.013123	0.016632	-0.00824	0.056458	0.007324	0.037079	0.068665	-0.004425	0.003967	0.062561	-0.10635	-0.041656	0.081635	0.044556	-0.003357	1.1189	0.011597	-0.28519	-0.064697	0.037537	-0.10895	0.015869	-0.015869	0.047913	-0.008392	-0.005188	-0.032501	-0.001678	0.027466
43.391	0.011444	-0.19302	-0.12207	0.007935	0.013428	0.009155	0.074768	0.007172	-0.002747	-0.017548	-0.000153	0.005188	-0.018463	-0.20844	-0.029755	-0.15533	0.070343	-0.060883	0.99884	0.017548	-0.17716	-0.072632	-0.027161	-0.11063	0.010071	-0.016022	0.13641	-0.002136	-0.018616	-0.009613	-0.004578	0.020447
43.392	0.009918	-0.1474	-0.057831	0.033112	0.015869	-0.00885	0.060883	0.009918	0.014191	-0.12222	-0.00412	0.001678	-0.088501	-0.16541	-0.018158	-0.095367	0.08667	-0.079193	0.59189	-0.02655	0.11429	-0.09613	-0.002136	-0.087433	0.017242	-0.013733	0.21835	-0.009003	-0.028229	-0.007172	-0.006561	0.029907
43.393	0.012512	-0.18478	0.11566	0.01709	0.020447	-0.020752	0.035706	0.010834	0.010834	-0.066833	-0.014191	0.001068	0.12756	0.014343	-0.034027	-0.031281	0.070496	-0.15411	0.56793	-0.063782	0.35904	-0.078583	-0.085144	-0.17075	0.025177	-0.014191	0.24735	-0.003662	-0.033722	-0.011292	-0.002289	0.024719
43.394	0.009766	-0.22934	0.025635	0.010529	0.024109	0.008698	0.033722	0.021057	0.003204	-0.021057	-0.00824	-0.001068	0.075531	0.056458	-0.041046	-0.011902	0.042419	-0.14069	0.15732	-0.034637	0.33966	-0.11459	-0.064697	-0.13351	0.025635	-0.014038	0.17212	-0.002136	0.011139	0.001373	-0.002289	0.026093
43.395	0.01297	-0.19333	0.041199	0.025635	0.027008	0.025635	0.00946	0.003967	0.067291	-0.001831	0.005035	0.001678	-0.052948	-0.040283	-0.016785	-0.010071	-0.010834	-0.13138	-0.074463	-0.004883	0.13596	0.076904	-0.084229	-0.047913	0.048523	-0.015411	-0.003357	-0.004883	0.06012	-0.012665	-0.000458	0.027771
43.396	0.00412	-0.16129	0.013733	0.018005	0.026703	0.010376	0.054169	0.00412	0.06134	0.003815	-0.00412	-0.003815	0.043182	-0.014801	-0.004272	-0.012207	-0.066833	-0.10254	-0.12894	0.066223	0.091095	0.16861	-0.081177	-0.044861	0.021515	-0.01709	-0.33356	-0.00824	0.061951	-0.042114	-0.00412	0.026245
43.397	0.003662	-0.1799	-0.000916	-0.006714	0.023804	0.022125	0.11627	-0.006866	0.025177	0.026398	-0.034485	0.001221	0.089722	0.10086	-0.017242	0.000763	-0.084534	-0.071869	-0.38101	0.076599	0.027618	0.12085	-0.034332	-0.088959	0.020599	-0.020752	-0.15839	-0.002594	-0.017548	-0.047913	0.000153	0.030975
43.398	0.002136	-0.17303	0.030365	-0.000153	0.020447	0.001831	0.13931	0.002747	0.014648	0.033112	-0.064392	-0.000458	0.077667	0.13245	0.00412	-0.004425	-0.00824	-0.070648	-0.37064	0.041046	0.005035	0.0737	0.00412	-0.047302	0.010986	-0.015411	0.08728	-0.00412	-0.15945	-0.043945	-0.005341	0.03479
43.399	0.010376	-0.14389	-0.005493	0.017242	0.024872	-0.00061	0.1004	0.008392	0.034332	0.016022	-0.068817	0.00351	0.023956	0.088043	0.020752	0.004425	0.033569	-0.17166	-0.022888	-0.039978	0.037537	0.10101	-0.015717	0.005341	0.033569	-0.016632	0.27374	-0.002289	-0.18906	-0.045013	0.001221	0.033875
43.4	0.015869	-0.16281	-0.051727	0.010071	0.021667	-0.00351	0.04776	0.002747	0.087433	0.003967	-0.030823	-0.001221	0.018921	0.087585	0.036316	0.005188	0.055237	-0.14816	-0.037384	-0.018921	-0.11292	0.098877	-0.023804	-0.026093	0.029144	-0.013275	0.15335	-0.005341	-0.063477	-0.046234	-0.002441	0.033417
43.401	0.013885	-0.10956	-0.060883	0.002747	0.02655	-0.015411	0.067596	0.005646	0.1059	-0.000916	-0.048523	0.001526	0.11643	0.057526	0.051422	-0.007477	0.089417	-0.12512	0.08728	-0.070496	-0.22949	0.24979	-0.036621	-0.026703	0.039978	-0.017548	-0.2124	-0.002899	0.27512	-0.059662	-0.000305	0.036316
43.402	0.012512	-0.099792	-0.054321	0.000916	0.02533	-0.000916	0.09613	0.014954	0.062866	0.006256	-0.06073	0.005646	0.089722	0.076447	0.065918	0.000763	0.079651	-0.046539	-0.044861	-0.081787	-0.19455	0.29785	-0.032043	-0.052185	0.035858	-0.019836	-0.26703	-0.003662	0.40131	-0.066376	-0.004272	0.03891
43.403	0.013123	-0.050201	0.008545	-0.005188	0.029449	-0.009918	0.1004	0.009155	0.068359	-0.005035	0.10254	0.004425	-0.24994	0.054474	0.054779	0.001373	0.033112	-0.069733	-0.14664	-0.018463	-0.079346	0.13336	-0.053558	0.026245	0.052948	-0.018158	-0.14847	-0.005493	0.070953	-0.091248	-0.002899	0.045624
43.404	0.006866	-0.044098	-0.010986	0.009308	0.03006	0.005493	0.075684	0.012665	0.075073	-0.034485	0.22781	0.005035	-0.22232	0.007172	0.01709	0.002441	-0.017548	-0.029297	0.031586	0.028381	-0.025482	-0.032806	-0.079956	0.11261	0.064697	-0.019379	-0.093384	-0.001831	0.08667	-0.098114	-0.000916	0.036011
43.405	0.013885	-0.043793	-0.024261	0.008545	0.021057	0.021057	0.059509	-0.00412	0.076599	-0.064087	0.10147	-0.001678	-0.001221	0.02655	0.0354	0.014648	-0.056458	0.002289	0.18738	0.083618	0.048828	-0.054474	-0.025024	0.074463	0.049286	-0.01236	-0.11185	-0.002594	-0.15198	-0.097198	-0.003052	0.035553
43.406	0.012817	0.013428	-0.052032	0.002747	0.004578	0.028687	0.083923	0.023346	0.056305	-0.07782	-0.021515	0.003052	0.18249	0.030823	0.015106	-0.00412	-0.090027	-0.020752	0.084534	0.056	0.20248	-0.13931	-0.041351	0.07843	0.032196	-0.016785	-0.19226	-0.002747	-0.10361	-0.092316	-0.00351	0.033569
43.407	0.005035	-0.021515	-0.061951	-0.002136	0.005493	-0.009766	0.076904	0.029449	0.054169	-0.071259	-0.001831	-0.00351	0.30884	0.087585	-0.012207	-0.002136	-0.091705	-0.037231	-0.045776	0.039215	0.13138	-0.19989	-0.039215	0.045319	0.014648	-0.022125	-0.15076	-0.003662	-0.28793	-0.00946	-0.00351	0.027771
43.408	0.00351	0.004425	-0.071716	-0.015259	0.023804	-0.032043	0.09201	0.015106	0.050049	-0.095825	-0.045319	-0.000763	-0.2034	0.062714	-0.007019	0.001221	-0.078278	-0.010376	-0.050964	0.018311	0.055847	-0.20889	-0.043793	0.000763	0.019226	-0.022125	-0.083618	-0.00824	0.049744	0.041046	-0.002899	0.012817
43.409	0.000916	-0.007172	-0.04715	-0.004578	0.054169	0.016785	0.11581	0.011902	0.049286	-0.14389	-0.07843	-0.001221	-0.68283	0.041809	0.001526	-0.001373	-0.001221	-0.028076	-0.25482	-0.005951	-0.0177	-0.22614	-0.027008	-0.042419	0.011597	-0.030518	-0.053558	-0.002747	0.15549	0.074005	0	0.013123
43.41	0.00412	-0.001831	-0.034332	0.016174	0.044098	0.008392	0.1149	0.005341	0.060577	-0.14999	-0.014496	0.001831	-0.14221	-0.012817	-0.045776	0.005188	0.062866	-0.050812	-0.29098	0.007324	-0.005493	-0.21423	-0.014343	-0.095062	0.026703	-0.033417	-0.015717	-0.00351	0.13168	0.087585	-0.002136	0.010223
43.411	0.011902	0.025177	-0.07309	-0.002899	0.013123	0.030518	0.12604	0.003967	0.048523	-0.17258	0.077209	0.002441	0.14694	0.02594	-0.12863	0.006409	0.050659	-0.028839	0.045166	0.032501	0.084076	-0.11444	-0.016632	-0.094299	0.022125	-0.036774	-0.018616	-0.00885	0.037994	0.061798	-0.002441	0.008698
